<svg xmlns="http://www.w3.org/2000/svg" width="117" height="24" fill="none"><path fill="#7D3F98" d="M115.808 17.724c0-1.588.198-3.875.198-6.543 0-4.955-2.108-6.798-7.839-6.798-2.767 0-5.205.382-6.72 1.017l.198 3.939c1.317-.7 3.228-1.335 5.072-1.335 2.635 0 3.36 1.017 3.36 3.495v.38h-.856c-6.456 0-9.487 1.907-9.487 5.4 0 3.622 1.845 5.718 7.181 5.718 2.833 0 5.533-.381 9.157-.381-.264-1.334-.264-3.43-.264-4.892Zm-7.51 1.906c-1.976 0-2.832-.635-2.832-2.223 0-1.525 1.054-2.415 3.755-2.415h.79c0 1.462-.066 3.24.066 4.447-.461.128-1.12.191-1.779.191Zm-49.801-.19c-3.228 0-4.941-1.589-4.941-4.13v-.127c.593 0 1.713.064 2.372.064 5.73 0 8.63-1.716 8.63-5.464 0-3.24-2.438-5.336-7.642-5.336-6.39 0-8.893 2.732-9.486 7.623-.923-.063-1.977-.063-3.36-.063v-.826c0-4.955-2.108-6.798-7.84-6.798-2.766 0-5.203.382-6.718 1.017l.197 3.939c1.318-.7 3.228-1.335 5.073-1.335 2.635 0 3.425 1.017 3.425 3.495v.38h-.856c-6.456 0-9.486 1.907-9.486 5.4 0 3.622 1.844 5.718 7.18 5.718 2.833 0 5.534-.381 9.157-.381-.264-1.461-.264-3.558-.264-4.955 0-.763.066-1.652.066-2.669 1.515 0 2.635.064 3.36.064.527 5.845 3.689 7.941 10.145 7.941 2.371 0 4.808-.381 6.126-.953l-.198-3.939c-1.251.763-3.03 1.334-4.94 1.334Zm-22.069.19c-1.976 0-2.832-.635-2.832-2.223 0-1.525 1.054-2.415 3.755-2.415h.79c0 1.462-.066 3.24.066 4.447-.461.128-1.186.191-1.779.191Zm17.062-7.56c0-2.477.79-4.32 3.162-4.32 1.318 0 2.24.7 2.24 1.906 0 1.715-1.186 2.541-3.69 2.541-.592 0-1.25 0-1.712-.063v-.064Zm43.873 2.35v-3.493c0-4.51-2.042-6.48-7.84-6.48-3.227 0-5.533.572-9.156.572.198 3.176.198 7.051.198 9.465 0 2.478-.066 6.861-.198 8.259h6.192c-.131-1.398-.263-5.527-.263-8.259 0-1.588 0-3.494.066-6.035.593-.19 1.383-.381 2.24-.381 2.173 0 2.898.953 2.898 3.685v2.668c0 2.477-.066 6.86-.198 8.258h6.193c0-1.397-.132-5.463-.132-8.258Zm-19.499 4.32.263 3.94c-.46.126-1.976.38-3.952.38-4.084 0-6.258-1.651-6.258-5.717 0-3.176.066-6.67.066-8.576h-2.108c.066-.89 0-2.097 0-2.986 3.162-.508 4.15-2.223 4.677-5.59h3.491c-.132 1.397-.197 3.367-.263 4.764h3.689v3.812h-3.755v6.924c0 2.668.593 3.43 2.437 3.43.659 0 1.384-.126 1.713-.38ZM7.378 2.796c.79 0 1.515.254 2.108.826l3.425 3.304 3.426-3.304c.592-.572 1.317-.826 2.108-.826.724 0 1.515.254 2.108.826l4.216 4.066c1.185 1.143 1.185 2.922 0 4.066L12.91 23.124 1.054 11.69c-1.186-1.143-1.186-2.922 0-4.066L5.27 3.558a3.175 3.175 0 0 1 2.108-.763Z"/></svg>