<?xml version="1.0" encoding="UTF-8"?>
<svg id="Layer_2" data-name="Layer 2" xmlns="http://www.w3.org/2000/svg" viewBox="0 0 129 36.7">
  <defs>
    <style>
      .cls-1, .cls-2 {
        fill: #09c;
      }

      .cls-2 {
        fill-rule: evenodd;
      }
    </style>
  </defs>
  <g id="Layer_2-2" data-name="Layer 2">
    <g id="Layer_2-2" data-name="Layer 2-2">
      <path d="m57.8,11.2V.9h3.9c1.8-.1,3.7.7,3.7,2.7,0,1.1-.8,1.9-1.8,2.3,1.3.3,2.3,1.2,2.3,2.7,0,2-2.6,2.8-4.1,2.7l-4-.1h0Zm4-6.1c1,0,1.4-.4,1.4-1.2s-.5-1.2-1.4-1.2h-1.8v2.4h1.8Zm0,4.4c1,0,1.7-.2,1.7-1.4s-.7-1.4-1.7-1.4h-1.8v2.7l1.8.1c0-.1,0,0,0,0Zm7.6-8.5v10.2h-2.2V.9l2.2.1h0Zm6.5,9.3c-.5.7-1.1,1.1-2.2,1.1-.7,0-2.1-.5-2.3-1.6-.1-.4-.1-.9-.1-1.1v-4.6h2.2v4.3c0,.8.2,1.7,1.2,1.7.7,0,1.2-.6,1.2-1.7v-4.3h2.1v5.8c0,.4.1.8.1,1.2h-2.2s0-.8,0-.8Zm5.9-2.1c0,.9.1,1.8,1.2,1.8.7,0,1.1-.3,1.3-.9h1.9c-.2,1.8-1.6,2.3-3.2,2.3-2.4,0-3.5-1.4-3.5-3.8,0-2.2,1.2-3.8,3.5-3.8,1.3,0,2.4.5,3,1.7.2.4.3.8.4,1.2s.1.9.1,1.4l-4.7.1h0Zm2.5-1.4c0-.8-.3-1.5-1.3-1.5-.9,0-1.2.7-1.2,1.5h2.5Zm9.4-2.6c0-1.1-.7-2-2-2-1.6,0-2,2.3-2,3.8s.4,3.8,2,3.8c1.3,0,2-.9,2-2h2.3c-.1,2.6-2,3.5-4.3,3.5-3,0-4.3-2.3-4.3-5.4s1.3-5.4,4.3-5.4c2.4,0,4.2,1,4.3,3.5h-2.3v.2Zm5.4-.1l.1,1.3c.5-1.1,1.4-1.4,2.4-1.4v1.9h-.9c-.4,0-.8.2-1,.5-.2.4-.3.8-.3,1.2v3.5h-2.2v-5.6c0-.3-.1-.9-.1-1.4h2Zm7.2,7.3c-2.3,0-3.8-1.6-3.8-3.8s1.4-3.8,3.8-3.8,3.8,1.5,3.8,3.8-1.5,3.8-3.8,3.8Zm0-1.4c1.3,0,1.6-1.2,1.6-2.4s-.2-2.4-1.6-2.4-1.6,1.2-1.6,2.4c.1,1.2.3,2.4,1.6,2.4Zm8.8-4c0-.5-.5-.7-.9-.7-.6,0-.8.2-.8.7,0,1.1,4.1.5,4.1,3.2,0,1.6-1.9,2.3-3.2,2.3-1.7,0-3.1-.7-3.2-2.3h2c.1.5.5.9,1.2.9.6,0,1-.2,1-.8s-1-.8-1.4-.9c-1.4-.3-2.6-.7-2.6-2.3,0-1.5,1.8-2.2,3-2.2,1.5,0,2.8.5,2.9,2.2l-2.1-.1h0Zm7.1,0c0-.5-.5-.7-.9-.7-.6,0-.8.2-.8.7,0,1.1,4.1.5,4.1,3.2,0,1.6-1.9,2.3-3.2,2.3-1.7,0-3.1-.7-3.2-2.3h2c.1.5.5.9,1.2.9.6,0,1-.2,1-.8s-1-.8-1.4-.9c-1.4-.3-2.6-.7-2.6-2.3,0-1.5,1.8-2.2,3-2.2,1.5,0,2.8.5,2.9,2.2l-2.1-.1h0c.1,0,0,0,0,0ZM57.8,25.2v-10.3h3.9c1.8-.1,3.7.7,3.7,2.7,0,1.1-.8,1.9-1.8,2.3,1.3.3,2.3,1.2,2.3,2.7,0,2-2.6,2.8-4.1,2.7l-4-.1h0Zm4-6.2c1,0,1.4-.4,1.4-1.2s-.5-1.2-1.4-1.2h-1.8v2.4h1.8Zm0,4.4c1,0,1.7-.2,1.7-1.4s-.7-1.4-1.7-1.4h-1.8v2.7c0,.1,1.8.1,1.8.1Zm7.6-8.5v10.2h-2.2v-10.2s2.2,0,2.2,0Zm6.5,9.4c-.5.7-1.1,1.1-2.2,1.1-.7,0-2.1-.5-2.3-1.6-.1-.4-.1-.9-.1-1.1v-4.7h2.2v4.4c0,.8.2,1.7,1.2,1.7.7,0,1.2-.6,1.2-1.7v-4.4h2.1v5.8c0,.4.1.8.1,1.2h-2.2c0,.1,0-.7,0-.7Zm5.9-2.1c0,1,.1,1.8,1.2,1.8.7,0,1.1-.3,1.3-1h1.9c-.2,1.8-1.6,2.3-3.2,2.3-2.4,0-3.5-1.4-3.5-3.8,0-2.1,1.2-3.8,3.5-3.8,1.3,0,2.4.5,3,1.7.2.4.3.8.4,1.2s.1.9.1,1.4l-4.7.2h0Zm2.5-1.4c0-.8-.2-1.5-1.2-1.5-.9,0-1.2.7-1.2,1.5,0,0,2.4,0,2.4,0Zm9.1-3c-.1-1-.7-1.5-1.7-1.5-.8,0-1.6.4-1.6,1.3,0,1.1,1,1.2,1.9,1.4,1.6.4,3.9.8,3.9,2.9,0,2.6-2.2,3.5-4.4,3.5s-4-.9-3.9-3.5h2.3c-.1,1.1.6,1.9,1.7,1.9.9,0,2-.3,2-1.4,0-1.2-1.5-1.3-2.3-1.5-1.4-.4-3.4-1-3.4-2.9,0-2.3,2.2-3.4,4.3-3.4s3.5,1.1,3.5,3.2h-2.3Zm3.9,7.4v-10.3h2.2v4c.4-.7,1.1-1.1,2.2-1.1.7,0,2.1.5,2.3,1.5.1.4.1.9.1,1.1v4.6h-2.1v-4.3c0-.8-.2-1.6-1.2-1.6-.7,0-1.2.6-1.2,1.6v4.3h-2.3v.2Zm10.9-10.3v1.9h-2.2v-1.9h2.2Zm-.1,3.1v7.1h-2.1v-7.1h2.1Zm3.8,4.2c0,1,.1,1.8,1.2,1.8.7,0,1.1-.3,1.3-1h1.9c-.2,1.8-1.6,2.3-3.2,2.3-2.4,0-3.5-1.4-3.5-3.8,0-2.1,1.2-3.8,3.5-3.8,1.3,0,2.4.5,3,1.7.2.4.3.8.4,1.2s.1.9.1,1.4l-4.7.2h0Zm2.4-1.4c0-.8-.2-1.5-1.2-1.5-.9,0-1.2.7-1.2,1.5,0,0,2.4,0,2.4,0Zm5.7-5.9v10.2h-2.2v-10.2h2.2Zm6.8,0h2.1v8.9c0,.5.1,1,.1,1.4h-2.2c0-.4-.1-.7-.1-1-.5.8-1.2,1.2-2.2,1.2-2.1,0-3.1-2-3.1-3.8s1.1-3.8,3.3-3.8c.7,0,1.5.4,1.9,1l.2-3.9h0Zm-1.6,9.1c1.1,0,1.6-1.4,1.6-2.4s-.4-2.4-1.6-2.4c-1.4,0-1.6,1.2-1.6,2.4.1,1.1.3,2.4,1.6,2.4Z"/>
      <path class="cls-1" d="m39.1,7.2c-.1,0-.1.1-.3.1s-.2-.1-.3-.3c-.1-.1-.2,0-.3-.1.3,0,.8,0,.9.3.1,0,0,0,0,0Z"/>
      <path class="cls-2" d="m18.5,7.4V.3H7.1v7.1H0v11.4h7.1v7.1h11.4v-7.1h7.1V7.4h-7.1Zm-5.6-1.3c2.8,0,5.3,1.6,6.4,4h-5c-.7,0-1.1-.5-1.1-.8,0-.4.1-.5.4-1,.4-.4.1-1.3-.7-1.3s-1.1.9-.7,1.4c.3.5.4.6.4,1,0,.3-.3.8-1.1.8h-5c1.1-2.5,3.5-4.1,6.4-4.1Zm-6.6,4.6c-.3.8-.5,1.6-.5,2.5,0,2.2,1,4.2,2.7,5.5l3.3-6.1c.2-.5.1-1.4-.8-1.5l-4.7-.4h0Zm10.4,8.3c-1.1.7-2.4,1.2-3.9,1.2s-2.7-.5-3.8-1.2l3.5-5.1c.3-.3.6-.3.9,0l3.3,5.1h0Zm-2.8-6.4l3.3,6.1c1.6-1.3,2.8-3.3,2.7-5.5,0-.9-.2-1.7-.5-2.5l-4.7.5c-.9.1-1,.9-.8,1.4h0Z"/>
      <path class="cls-1" d="m10.5,12l-3.6-.3c-.1.5-.2.9-.2,1.4,0,1.5.5,2.9,1.4,4l2.5-4.8c.2-.1.2-.3-.1-.3h0Z"/>
      <path class="cls-1" d="m12.9,15s-.1,0-.1.1l-2.4,3.6c.8.3,1.6.5,2.5.5s1.7-.2,2.5-.5l-2.4-3.7h-.1Z"/>
      <path class="cls-1" d="m11.2,7.3c-1.2.4-2.2,1-3,1.9h3.2c.1,0,.1-.1,0-.1-.3-.4-.6-1.2-.2-1.8Z"/>
      <path class="cls-1" d="m15.2,12c-.3,0-.3.1-.2.3l2.5,4.7c.9-1,1.4-2.4,1.4-4,0-.5-.1-1-.2-1.4l-3.5.4h0Z"/>
      <path class="cls-1" d="m17.5,9.2c-.8-.9-1.8-1.6-2.9-1.9.3.6.1,1.4-.3,1.8-.1.1,0,.1,0,.1h3.2Z"/>
      <path class="cls-2" d="m43.4,4.8c-1.2.1-2.3.2-3.5.2s-2.3-.1-3.5-.3-2.4-.4-3.6-.7h0c-.9,2.4-.7,5.5,0,8.2,1.2,5.1,4.4,9.1,7.1,10.7,2.8-1.7,5.9-5.6,7.1-10.7.7-2.7.8-5.8,0-8.2-1.2.4-2.4.6-3.6.8h0Zm-4.2,15.8v.5c-.1.2-.2.1-.3,0-.1-.2-.2-.3-.2-.6-.1-.5.2-.7.3-.8h0c.1-.1.3-.2.3-.2l.1.9c0-.2-.2-.1-.2.2h0Zm.8,1.1c.3,0,.3-.1.3-.3v-.8h0v-1.8c-.1-.1-.3-.3-.3-.3-.1-.1-.4-.2-.4-.2,0,0,0,2,.1,2.9,0,.4.1.5.3.5h0Zm1.1-2.2c-.3.2-.5.3-.5.3v-.8s.1-.1.1-.2c-.1-.1-.6-.5-.8-.6-.1-.1-.3-.1-.5-.2h0c-.2,0-.3-.1-.5-.1-.7-.3-.8-.9-.6-1.4.1-.3.3-.4.5-.5.1-.1.4-.1.4-.1l.1.9s-.1,0-.1.1c-.1.1.1.3.1.3.2.1.3.1.5.2.3.1.7.3,1,.5.6.3.8.6.8,1-.1.2-.2.4-.5.6h0Zm-1.2-4.1c-.1,0-.2,0-.4-.1l.1,1.5.4.2.4.2.1-1.8c-.3.1-.4,0-.6,0h0Zm2.2.4c-.1.3-.3.6-.6.8s-.7.2-.7.2v-1s.1,0,.1-.1q.1-.1.1-.2c0-.1-.1-.1-.1-.2-.1-.1-.3-.1-.3-.1-.3,0-.5-.1-.8-.1-.3-.1-.5-.1-.8-.1-.9-.1-1.6-.7-1.5-1.6.1-.5.6-.8,1-.9,0,0,.1,0,.1-.1l.3.6c.1.3.1.4.1.4,0,0-.2.1-.2.2s.2.2.3.2c.7.1,1.5.2,2,.3.3.1.6.3.8.5.2.5.3.8.2,1.2h0Zm-2.3-4.2c-.5-.1-.7-.1-.7-.1l-.1.2-.3.1v.2c.1.1.1.2.2.3.2.3.3.6.4,1.1.2,0,.3.1.4.1.2,0,.4.1.7.1l.1-1.9s-.3-.1-.7-.1h0Zm1.1,1.9s.1-.9.1-1.4c.3-.1.3-.3.2-.5-.1-.1-.3-.2-.3-.2-.3-.1-.7-.1-1-.1h0c-.2,0-.3,0-.5-.1-.5-.1-.8-.1-1.2-.2-.8-.2-1.6-.6-2-1.4-.5-1-.1-2.2.8-2.7.7-.4,1.5-.3,2.2,0,.2.1.3.3.5.4h0s0,.1.1.1l.1.1q.1.1.2.2c.1.1-.1.1-.1.1-.1.1-.7.1-.8,0h-.8c.1.1.2.1.3.2h0c.1.1.2.1.3.2.1,0,.1.1.2.1s.1,0,.2.1c.1,0,.2.1.2.1,0,0,0,.1-.1.1,0,0-.1,0-.1.1-.2.1-.5.1-.7,0-.2,0-.3-.1-.4-.1-.2-.1-.3-.1-.5-.1-.2.1-.2.3-.1.6.1.3.5.5.8.6.5.1.9.2,1.4.2.7.1,1.4.1,2,.5.4.2.9.6,1,1.1.1,1.7-2,2-2,2h0Zm1.7-5.7q.1-.1.2-.2c.1-.5-.5-.8-.6-.7-.2.1-.4.3-.6.5-.2.1-.3.3-.5.4,0,0-.1,0-.1-.1v-1c0-.1,0-.2-.1-.2h0c-.5-.1-.8-.3-1.2-.5-.1-.1-.3-.1-.4.1-.1.1-.1.5-.1.5,0,0,.5.1.6.3.1.1.1.2.2.3,0,.1.1.1.1.1l.2.2c.1.1.2.3.1.3,0,.1-.2.1-.3.1h-.6s.7.1,1,.1c.2.1.3.1.3.2v.2c-.1-.1-.2-.1-.4-.1-.3-.1-.6-.2-.9-.3h-.1.1c.1,0,.2.1.3.1.1.1.1.2.1.2-.1.4-.7.4-.7.4v.5c.2.1.5.1.8.1s.6.1.8.1c0,0,.1-.1.1-.2.1-.2.2-.3.4-.4.1-.1.2-.1.2-.2.2-.2.4-.3.5-.5.2-.1.3-.2.4-.4.1.1.2.2.2.1h0Z"/>
      <path class="cls-2" d="m39.9,2.2c3.3-.1,6.1-.8,8.9-2.2,1.9,3.6,2.2,9.5.7,14.4-1.6,4.8-4.6,9.1-9.5,11.8-5-2.7-7.9-7-9.5-11.8-1.7-4.9-1.3-10.8.5-14.4,2.8,1.4,5.6,2.2,8.9,2.2h0Zm0,21.8c4-2.5,6.2-6.1,7.6-10.1,1.2-3.7,1.5-7.9.2-11.1-2,.7-3.1.9-4.2,1.1h-.3c-1,.1-1.8.2-3.2.2s-2.3-.1-3.2-.2h-.3c-1.1-.2-2.2-.4-4.2-1.1-1.3,3.2-1,7.5.2,11.1,1.2,4.1,3.4,7.6,7.4,10.1h0Z"/>
    </g>
    <g>
      <path d="m9.73,32.07c0-.35-.02-.71-.18-.9s-.53-.27-.7-.27c-.65,0-.91.4-.94.48-.03.07-.18.22-.18,1.29v1.66c0,1.52.5,1.7,1.11,1.7.24,0,.97-.09.98-1.3h.82c.03,1.96-1.35,1.96-1.76,1.96-.77,0-1.96-.05-1.96-2.46v-1.76c0-1.76.78-2.26,2-2.26s1.71.64,1.63,1.84h-.82Z"/>
      <path d="m11.7,36.58v-6.22h.79v2.69h2.18v-2.69h.79v6.22h-.79v-2.84h-2.18v2.84h-.79Z"/>
      <path d="m16.77,36.58v-6.22h3.2v.69h-2.41v2h2.24v.69h-2.24v2.15h2.46v.69h-3.25Z"/>
      <path d="m23.68,32.07c0-.35-.02-.71-.18-.9s-.53-.27-.7-.27c-.65,0-.91.4-.94.48-.03.07-.18.22-.18,1.29v1.66c0,1.52.5,1.7,1.11,1.7.24,0,.97-.09.98-1.3h.82c.03,1.96-1.35,1.96-1.76,1.96-.77,0-1.96-.05-1.96-2.46v-1.76c0-1.76.78-2.26,2-2.26s1.71.64,1.63,1.84h-.82Z"/>
      <path d="m25.6,36.58v-6.22h.79v2.73h.03l2.17-2.73h.9l-2.26,2.81,2.38,3.41h-1.02l-2.18-3.25h-.03v3.25h-.79Z"/>
      <path d="m32.03,36.58v-6.22h.79v5.53h2.28v.69h-3.07Z"/>
      <path d="m35.7,34.3v-2.04c0-1.24.64-2.03,1.95-2.03s1.95.79,1.95,2.03v2.04c0,1.72-.64,2.4-1.95,2.4s-1.95-.68-1.95-2.4Zm3.1.03v-2.1c0-1.3-.9-1.34-1.14-1.34s-1.15.04-1.15,1.34v2.1c0,1.36.4,1.7,1.15,1.7s1.14-.34,1.14-1.7Z"/>
      <path d="m43.59,32.07c0-.35-.02-.71-.18-.9s-.53-.27-.7-.27c-.65,0-.91.4-.94.48-.03.07-.18.22-.18,1.29v1.66c0,1.52.5,1.7,1.11,1.7.24,0,.97-.09.98-1.3h.82c.03,1.96-1.35,1.96-1.76,1.96-.78,0-1.96-.05-1.96-2.46v-1.76c0-1.76.77-2.26,2-2.26s1.7.64,1.63,1.84h-.82Z"/>
      <path d="m46.91,30.36h1.01l2.02,6.22h-.89l-.45-1.48h-2.4l-.46,1.48h-.8l1.97-6.22Zm.48.73h-.02l-.97,3.32h1.99l-1-3.32Z"/>
      <path d="m50.64,36.58v-6.22h.79v5.53h2.28v.69h-3.07Z"/>
      <path d="m56.21,36.58v-6.22h1.84c.83,0,1.73.31,1.73,1.77s-1.1,1.7-1.74,1.7h-1.04v2.74h-.79Zm.79-3.43h.87c.33,0,1.1-.09,1.1-1.06s-.71-1.04-.88-1.04h-1.09v2.1Z"/>
      <path d="m60.76,36.58v-6.22h.79v5.53h2.28v.69h-3.07Z"/>
      <path d="m65.86,30.36h1.01l2.02,6.22h-.89l-.45-1.48h-2.4l-.46,1.48h-.8l1.97-6.22Zm.48.73h-.02l-.97,3.32h1.99l-1-3.32Z"/>
      <path d="m73.89,30.36v6.22h-1.09l-2.45-5.39h-.02v5.39h-.71v-6.22h1.12l2.42,5.32h.02v-5.32h.71Z"/>
      <path d="m76.91,36.58v-6.22h3.08v.69h-2.29v2h2.17v.69h-2.17v2.84h-.79Z"/>
      <path d="m80.64,34.3v-2.04c0-1.24.64-2.03,1.95-2.03s1.95.79,1.95,2.03v2.04c0,1.72-.64,2.4-1.95,2.4s-1.95-.68-1.95-2.4Zm3.1.03v-2.1c0-1.3-.9-1.34-1.15-1.34s-1.15.04-1.15,1.34v2.1c0,1.36.4,1.7,1.15,1.7s1.15-.34,1.15-1.7Z"/>
      <path d="m86.56,33.72v2.86h-.79v-6.22h2.14c1.1,0,1.49.77,1.49,1.55,0,.73-.41,1.29-1.14,1.42v.02c.71.11.97.35,1.02,1.6,0,.27.1,1.24.22,1.63h-.83c-.22-.43-.17-1.24-.24-2.07-.06-.76-.67-.79-.94-.79h-.93Zm0-.69h1.19c.57,0,.84-.49.84-1.03,0-.45-.22-.95-.84-.95h-1.2v1.98Z"/>
      <path d="m94.96,32.07c0-.35-.02-.71-.18-.9-.16-.2-.53-.27-.7-.27-.65,0-.91.4-.94.48-.03.07-.18.22-.18,1.29v1.66c0,1.52.5,1.7,1.11,1.7.24,0,.97-.09.98-1.3h.82c.03,1.96-1.35,1.96-1.76,1.96-.78,0-1.96-.05-1.96-2.46v-1.76c0-1.76.77-2.26,2-2.26s1.7.64,1.63,1.84h-.82Z"/>
      <path d="m96.86,34.3v-2.04c0-1.24.64-2.03,1.95-2.03s1.95.79,1.95,2.03v2.04c0,1.72-.64,2.4-1.95,2.4s-1.95-.68-1.95-2.4Zm3.1.03v-2.1c0-1.3-.9-1.34-1.15-1.34s-1.15.04-1.15,1.34v2.1c0,1.36.4,1.7,1.15,1.7s1.15-.34,1.15-1.7Z"/>
      <path d="m104.17,36.58h-.95l-1.8-6.22h.86l1.42,5.47h.02l1.46-5.47h.81l-1.82,6.22Z"/>
      <path d="m106.66,36.58v-6.22h3.2v.69h-2.41v2h2.24v.69h-2.24v2.15h2.46v.69h-3.25Z"/>
      <path d="m111.61,33.72v2.86h-.79v-6.22h2.14c1.1,0,1.49.77,1.49,1.55,0,.73-.4,1.29-1.14,1.42v.02c.71.11.97.35,1.02,1.6,0,.27.09,1.24.22,1.63h-.83c-.22-.43-.17-1.24-.24-2.07-.06-.76-.67-.79-.94-.79h-.93Zm0-.69h1.19c.57,0,.84-.49.84-1.03,0-.45-.22-.95-.83-.95h-1.2v1.98Z"/>
      <path d="m116.89,30.36h1.01l2.02,6.22h-.89l-.45-1.48h-2.4l-.46,1.48h-.8l1.97-6.22Zm.48.73h-.02l-.97,3.32h1.99l-1-3.32Z"/>
      <path d="m123.6,32.02c0-.73-.3-1.13-1.1-1.13-.25,0-1.15.04-1.15,1.34v2.1c0,1.36.4,1.7,1.15,1.7.57,0,.95-.15,1.11-.28v-1.86h-1.15v-.69h1.94v3.02c-.51.28-1.1.46-1.9.46-1.32,0-1.95-.68-1.95-2.4v-2.04c0-1.24.64-2.03,1.95-2.03s1.98.49,1.93,1.79h-.83Z"/>
      <path d="m125.75,36.58v-6.22h3.2v.69h-2.41v2h2.24v.69h-2.24v2.15h2.46v.69h-3.25Z"/>
    </g>
  </g>
</svg>