<svg width="113" height="43" viewBox="0 0 113 43" fill="none" xmlns="http://www.w3.org/2000/svg"><path fill-rule="evenodd" clip-rule="evenodd" d="M31.1426 19.0538C31.5008 18.6148 31.7542 18.3043 31.7542 18.0207C31.7542 17.8859 31.6603 17.7646 31.4393 17.7646C30.3325 17.7646 23.1566 20.9554 23.1566 32.4171C23.1566 37.8947 24.9871 42.4606 26.0674 42.4606C26.5435 42.4606 26.7227 41.9809 26.7227 41.0597C26.7227 40.2357 26.6061 39.4499 26.4676 38.517C26.2652 37.1538 26.0162 35.4763 26.0162 32.9063C26.0162 25.2167 28.9072 21.7472 30.5602 19.7635C30.7038 19.5911 30.8381 19.43 30.9603 19.2783C31.0234 19.1997 31.0844 19.1251 31.1426 19.0538ZM21.9491 32.417C21.9491 20.9554 14.7743 17.7645 13.6693 17.7645C13.4465 17.7645 13.3516 17.8859 13.3516 18.0206C13.3516 18.3043 13.605 18.6148 13.9632 19.0537C14.0214 19.125 14.0824 19.1997 14.1454 19.2782C14.2676 19.4298 14.4018 19.5907 14.5453 19.7628C16.199 21.7464 19.0915 25.2158 19.0915 32.9063C19.0915 35.4763 18.8415 37.1538 18.6383 38.5169C18.4992 39.4499 18.3821 40.2357 18.3821 41.0597C18.3821 41.9809 18.5632 42.4606 19.0394 42.4606C20.1196 42.4606 21.9491 37.8946 21.9491 32.417Z" fill="#3D84C1"></path><path d="M19.9265 20.2389C19.9265 21.7169 21.0757 22.9137 22.4937 22.9137C23.9155 22.9137 25.0657 21.7169 25.0657 20.2389C25.0657 18.759 23.9155 17.5632 22.4937 17.5632C21.0757 17.5632 19.9265 18.759 19.9265 20.2389Z" fill="#EC9B41"></path><path fill-rule="evenodd" clip-rule="evenodd" d="M44.8816 37.3618C41.1675 35.0518 35.5112 32.6481 27.3162 31.8877C27.3001 31.9891 27.2302 32.6003 27.2302 33.1857C27.2302 33.4603 27.2765 33.8164 27.2866 33.8941L27.2866 33.8941L27.2869 33.8964C35.2834 34.4215 40.9803 36.1384 44.8419 37.5387C44.8626 37.5462 44.8831 37.554 44.9026 37.5615C44.9577 37.5826 45.0054 37.6009 45.0319 37.6009C45.0773 37.6009 45.0991 37.5731 45.0991 37.5387C45.0991 37.4923 45.0592 37.4685 44.972 37.4167L44.972 37.4167L44.9719 37.4167C44.946 37.4013 44.916 37.3834 44.8816 37.3618ZM0.0652426 37.6009C0.0217475 37.6009 0 37.5731 0 37.5387C0 37.4917 0.0396793 37.468 0.128456 37.4149C0.153516 37.3999 0.182488 37.3826 0.215584 37.3617C3.93158 35.0518 9.58688 32.6481 17.7819 31.8877C17.7999 31.9891 17.8689 32.6003 17.8689 33.1857C17.8689 33.4545 17.8236 33.8014 17.8122 33.8888L17.8122 33.8889L17.8112 33.8964C9.81381 34.4215 4.11596 36.1384 0.256243 37.5387C0.236394 37.5459 0.216909 37.5535 0.19823 37.5608C0.143052 37.5822 0.0949118 37.6009 0.0652426 37.6009ZM9.71259 22.8517C10.3234 23.5069 11.4619 23.8196 12.5407 23.6073C13.6754 23.3835 14.098 22.6518 14.2673 21.9554C13.8531 21.3758 13.1884 20.8564 12.0585 21.0783C10.9768 21.2907 10.0341 22.0109 9.71259 22.8517ZM13.3994 12.4842C13.2387 13.6349 13.8466 15.0438 14.9302 15.9726C16.0649 16.9444 17.1353 16.7837 17.9626 16.3973C18.2056 15.5077 18.1876 14.4135 17.053 13.4388C15.9694 12.511 14.4953 12.1361 13.3994 12.4842ZM8.98165 16.0405C7.61628 15.4159 6.59414 14.1638 6.42773 12.95C7.44135 12.2748 9.04216 12.2231 10.4094 12.8477C11.8381 13.5019 12.1729 14.6086 12.1814 15.5804C11.4542 16.2184 10.4132 16.6957 8.98165 16.0405ZM12.8996 8.73955C12.0212 7.37367 11.816 5.64433 12.3597 4.44967C13.6617 4.43245 15.1396 5.32582 16.017 6.69074C16.9352 8.1207 16.6033 9.31632 16.053 10.2001C15.0289 10.3493 13.8158 10.1705 12.8996 8.73955ZM18.248 12.4766C17.7819 10.9529 18.0447 9.26565 18.874 8.28333C20.106 8.61906 21.2634 9.86441 21.7295 11.3891C22.2174 12.9855 21.5886 14.0223 20.836 14.7072C19.8337 14.5713 18.734 14.074 18.248 12.4766ZM9.68834 20.3743C8.46008 20.2395 7.33961 19.525 6.89993 18.6153C7.52021 17.8215 8.76738 17.3633 9.99753 17.4982C11.2854 17.6397 11.8291 18.4202 12.0834 19.1816C11.6721 19.8722 10.9771 20.5159 9.68834 20.3743ZM8.2143 8.03843C8.07152 9.06188 8.61238 10.313 9.57683 11.1403C10.5848 12.0041 11.536 11.8625 12.2726 11.5172C12.4891 10.7262 12.4702 9.75342 11.4632 8.88684C10.4987 8.06234 9.18916 7.72757 8.2143 8.03843ZM16.1502 4.57783C15.7607 3.3076 15.9819 1.90059 16.6712 1.08279C17.7 1.364 18.6654 2.4018 19.054 3.67011C19.4606 5.00156 18.9339 5.86431 18.308 6.43821C17.4711 6.32343 16.5577 5.90927 16.1502 4.57783ZM32.9188 15.5804C32.9273 14.6086 33.2611 13.5019 34.6907 12.8477C36.0552 12.2231 37.6588 12.2748 38.6715 12.95C38.5041 14.1638 37.4829 15.4159 36.1185 16.0405C34.686 16.6957 33.6469 16.2184 32.9188 15.5804ZM29.0841 6.69074C28.1659 8.1207 28.4978 9.31632 29.0472 10.2001C30.0693 10.3493 31.2853 10.1705 32.2015 8.73955C33.0771 7.37367 33.2832 5.64433 32.7405 4.44967C31.4385 4.43245 29.9606 5.32582 29.0841 6.69074ZM27.1369 16.3973C26.8958 15.5077 26.9137 14.4135 28.0484 13.4388C29.1329 12.511 30.6051 12.1361 31.7029 12.4842C31.8618 13.6349 31.2538 15.0438 30.1702 15.9726C29.0374 16.9444 27.9642 16.7837 27.1369 16.3973ZM23.3711 11.3891C22.8841 12.9855 23.512 14.0223 24.2637 14.7072C25.2688 14.5713 26.3656 14.074 26.8535 12.4766C27.3197 10.9529 27.0568 9.26565 26.2276 8.28333C24.9965 8.61906 23.8354 9.86441 23.3711 11.3891ZM30.835 21.9554C31.2501 21.3758 31.9119 20.8564 33.0447 21.0783C34.1264 21.2907 35.0672 22.0109 35.3896 22.8517C34.7798 23.5069 33.6413 23.8196 32.5596 23.6073C31.4269 23.3835 31.0023 22.6518 30.835 21.9554ZM35.1066 17.4982C33.8187 17.6397 33.275 18.4202 33.0197 19.1816C33.4292 19.8722 34.126 20.5159 35.4157 20.3743C36.644 20.2395 37.7635 19.525 38.2032 18.6153C37.582 17.8215 36.3367 17.3633 35.1066 17.4982ZM32.8266 11.5172C32.6101 10.7262 32.6271 9.75342 33.637 8.88684C34.6014 8.06234 35.911 7.72757 36.8849 8.03843C37.0277 9.06188 36.4859 10.313 35.5224 11.1403C34.5144 12.0041 33.5623 11.8625 32.8266 11.5172ZM26.0459 3.67011C25.6393 5.00156 26.164 5.86431 26.7909 6.43821C27.6277 6.32343 28.5421 5.90927 28.9496 4.57783C29.3363 3.3076 29.1189 1.90059 28.4239 1.08279C27.3999 1.364 26.4345 2.4018 26.0459 3.67011ZM20.4432 4.41329C20.4432 6.34446 21.4889 7.27321 22.5508 7.77346C23.6145 7.27321 24.6584 6.34446 24.6584 4.41329C24.6584 2.56917 23.7979 0.795826 22.5508 1.90735e-05C21.3036 0.795826 20.4432 2.56917 20.4432 4.41329Z" fill="#6EB659"></path><path fill-rule="evenodd" clip-rule="evenodd" d="M78.8742 29.601V30.6285C78.8742 33.4483 77.1626 34.5431 75.0387 34.5431C73.2862 34.5431 71.9557 34.0527 71.4051 33.8498C71.3558 33.8316 71.3128 33.8158 71.2762 33.8028V36.5923C71.3046 36.6 71.3401 36.6102 71.3827 36.6223L71.3828 36.6223C71.8852 36.7653 73.3619 37.1857 75.4014 37.1857C79.3297 37.1857 81.9545 35.5413 81.9545 29.9039V17.7395L81.9033 17.7263C81.3348 17.5789 79.5398 17.1136 77.4833 17.1136C71.9728 17.1136 69.6045 20.86 69.6045 24.9136C69.6045 28.6398 71.4531 31.5617 74.9923 31.5617C77.3263 31.5617 78.4485 30.1316 78.8133 29.601H78.8742ZM75.7238 28.8932C77.4873 28.8932 78.7068 27.5753 78.7068 24.4122V19.8134C78.3596 19.7282 77.9472 19.6687 77.3568 19.6687C74.4943 19.6687 72.9475 21.9356 72.9475 24.6769C72.9475 27.3622 73.9448 28.8932 75.7238 28.8932ZM65.0151 15.8675C63.9029 15.8675 63.004 14.9702 63.004 13.8631C63.004 12.7571 63.9029 11.8609 65.0151 11.8609C66.1263 11.8609 67.0263 12.7571 67.0263 13.8631C67.0263 14.9702 66.1263 15.8675 65.0151 15.8675ZM56.47 28.5781C57.8399 28.5781 59.2551 28.3011 60.1396 27.8804V30.8338C59.265 31.1658 57.9162 31.454 56.125 31.454C50.0164 31.454 46.4308 27.0829 46.4308 21.7371C46.4308 16.0806 50.3271 12.0146 56.125 12.0146C57.998 12.0146 59.3236 12.3253 60.1396 12.6326V15.5848C59.6553 15.3515 58.3308 14.8894 56.47 14.8894C52.7152 14.8894 49.9832 17.633 49.9832 21.7371C49.9832 25.8671 52.734 28.5781 56.47 28.5781ZM109.335 24.4122C109.335 27.5753 108.115 28.8932 106.352 28.8932C104.571 28.8932 103.57 27.3622 103.57 24.6769C103.57 21.9356 105.124 19.6687 107.984 19.6687C108.569 19.6687 108.984 19.7282 109.335 19.8134V24.4122ZM112.969 31.0313C112.981 31.1137 112.991 31.188 113 31.2532H110.081C110.044 30.8494 109.926 29.389 109.894 28.9595H109.809C109.371 29.8646 108.212 31.5617 105.625 31.5617C102.083 31.5617 100.241 28.6398 100.241 24.9136C100.241 20.86 102.606 17.1136 108.119 17.1136C110.162 17.1136 111.952 17.575 112.531 17.7244L112.59 17.7395V26.7004C112.59 28.3011 112.846 30.1404 112.969 31.0313ZM66.6412 17.467L63.3906 17.467V31.2532L66.6412 31.2532V17.467ZM85.6346 21.7135V31.2532L88.8885 31.2532V22.9182C88.8885 21.2357 89.7985 19.8359 91.5067 19.8359C93.1618 19.8359 94.1248 21.1628 94.1248 22.9182V31.2532L97.3732 31.2532V22.2665C97.3732 19.4074 95.6639 17.1136 92.5869 17.1136C90.0384 17.1136 88.9449 18.8219 88.6055 19.3648H88.5447L88.4076 17.4255H85.4865C85.5197 17.9818 85.6346 20.4349 85.6346 21.7135Z" fill="#3D84C1"></path></svg>