<svg xmlns="http://www.w3.org/2000/svg" width="114" height="43" fill="none"><path fill="#001489" d="M20.498 0v.052l.08.006c.076 0 .134.023.174.063.029.03.04.11.035.231l-.023 1.277c0 .11-.012.185-.035.214-.04.052-.104.075-.19.075l-.076-.006v.058l.89.017V1.93h-.081a.236.236 0 0 1-.173-.063c-.03-.035-.04-.11-.035-.231l.011-.578c.012 0 .03 0 .047.006h.161l.694.936.56.006v-.052a.748.748 0 0 1-.277-.087 1.134 1.134 0 0 1-.249-.266l-.421-.572c.179-.034.311-.092.392-.179a.441.441 0 0 0 .133-.318.406.406 0 0 0-.104-.288.511.511 0 0 0-.265-.174 1.833 1.833 0 0 0-.486-.057L20.498 0Zm-.543.035-1.606.132v.058l.075-.005c.087-.012.15.005.19.04.03.023.047.098.064.225l.121 1.277a.993.993 0 0 1 0 .19.147.147 0 0 1-.057.076.317.317 0 0 1-.14.04l-.074.012.006.052 1.606-.133.132-.509-.063.006c-.058.127-.116.22-.173.283a.34.34 0 0 1-.145.104.901.901 0 0 1-.248.047l-.353.028a.346.346 0 0 1-.12-.005.107.107 0 0 1-.047-.04c-.012-.018-.017-.07-.029-.157l-.064-.647.463-.04c.086-.006.15 0 .196.011.046.018.075.04.098.075.018.024.04.081.058.18l.058-.006-.064-.676-.057.006c.005.104-.018.185-.07.23-.035.035-.11.064-.23.07l-.463.04-.07-.774.572-.046c.104-.006.174-.006.22 0a.265.265 0 0 1 .121.081c.035.035.064.11.093.208l.063-.006-.063-.427Zm2.6 0-.006.052a.38.38 0 0 1 .144.052.289.289 0 0 1 .087.08c.011.024.034.076.063.168l.555 1.774.057.011.942-1.583a.557.557 0 0 1 .173-.202.417.417 0 0 1 .174-.046l.005-.052-.635-.075-.006.052c.012.006.017.011.03.011.063.018.115.04.138.07.029.029.04.057.034.086a.819.819 0 0 1-.104.226l-.635 1.068-.376-1.201a.62.62 0 0 1-.04-.237.102.102 0 0 1 .052-.075c.035-.023.098-.03.19-.03l.006-.051-.849-.098ZM21.328.12a.477.477 0 0 1 .318.122c.075.08.116.179.116.306a.41.41 0 0 1-.156.306c-.104.08-.254.116-.45.116-.006 0-.018 0-.03-.006h-.052l.018-.815a1.52 1.52 0 0 1 .237-.029ZM17.748.22l-.058.005c0 .052-.011.081-.017.099a.138.138 0 0 1-.064.034.37.37 0 0 1-.127-.011.988.988 0 0 0-.364-.018.647.647 0 0 0-.404.231.479.479 0 0 0-.098.387c.017.081.052.15.104.214.052.058.121.11.208.15.08.04.225.093.422.156.196.058.311.098.358.122.069.028.12.069.156.11a.33.33 0 0 1 .075.138.291.291 0 0 1-.064.243.437.437 0 0 1-.283.15.629.629 0 0 1-.312-.017.435.435 0 0 1-.237-.133.896.896 0 0 1-.173-.295l-.058.012.139.664.058-.012c-.006-.046 0-.075.011-.092a.084.084 0 0 1 .052-.035.923.923 0 0 1 .197.012c.11.017.173.023.208.017.057 0 .11-.006.173-.017a.705.705 0 0 0 .433-.243.492.492 0 0 0 .104-.41.543.543 0 0 0-.306-.364 3.049 3.049 0 0 0-.44-.156c-.26-.075-.426-.144-.502-.202a.232.232 0 0 1-.098-.15.261.261 0 0 1 .058-.226.394.394 0 0 1 .248-.138.567.567 0 0 1 .277.017c.099.029.18.081.243.145.064.069.116.161.156.288l.058-.011-.133-.664Zm7.325.15-.017.052.075.011a.314.314 0 0 1 .133.064c.023.023.04.046.046.07a.64.64 0 0 1-.03.196l-.282 1.247c-.023.116-.052.185-.081.214-.052.035-.116.046-.202.029l-.07-.012-.011.052.866.18.018-.058-.075-.012a.33.33 0 0 1-.128-.063c-.028-.023-.046-.047-.051-.075a.87.87 0 0 1 .028-.191L25.576.82c.023-.11.052-.185.086-.208.046-.04.11-.046.197-.029l.069.012.017-.052-.872-.173Zm-9.919.439-.693.23.023.053.063-.023c.081-.03.145-.03.191 0 .04.017.081.08.127.196l.399 1.063-1.721-.982-.538.18.018.051c.057-.023.104-.029.133-.034a.51.51 0 0 1 .15.017c.04.006.098.034.179.08l.485 1.289c.04.104.052.173.046.214-.017.057-.07.104-.156.127l-.07.023.024.052.688-.231-.018-.052-.075.023c-.075.029-.139.029-.19 0-.035-.017-.076-.087-.116-.202l-.433-1.138 1.86 1.057.052-.012-.59-1.565c-.04-.104-.057-.18-.046-.214.024-.058.07-.098.156-.127l.07-.029-.019-.046h.001Zm11.927.01a1.038 1.038 0 0 0-.277.03.997.997 0 0 0-.485.26 1.095 1.095 0 0 0-.3.48.988.988 0 0 0 .005.67c.11.283.324.473.659.566.179.052.352.058.508.017.162-.04.318-.127.474-.266l-.04-.04c-.168.121-.307.19-.422.214a.678.678 0 0 1-.37-.018.765.765 0 0 1-.364-.213.627.627 0 0 1-.167-.364 1.14 1.14 0 0 1 .052-.468c.069-.202.156-.37.26-.491a.736.736 0 0 1 .352-.231.734.734 0 0 1 .387.005.66.66 0 0 1 .364.243c.086.116.127.277.127.485l.046.018.162-.653-.058-.017a.208.208 0 0 1-.087.086c-.029.012-.052.017-.075.012-.023-.006-.046-.023-.08-.058a.998.998 0 0 0-.67-.268Zm1.433.446-.023.052.07.023c.08.035.126.075.144.122.011.04-.006.115-.058.225l-.526 1.184c-.046.087-.075.144-.098.168a.123.123 0 0 1-.087.04.583.583 0 0 1-.144-.017l-.07-.035-.023.052 1.485.59.37-.388-.058-.023a1.478 1.478 0 0 1-.295.18.394.394 0 0 1-.179.022 1.08 1.08 0 0 1-.242-.069l-.33-.127c-.052-.023-.086-.04-.098-.058-.017-.023-.023-.04-.023-.058.006-.023.017-.075.058-.15l.266-.6.427.167c.075.035.133.07.162.098.034.035.046.07.052.11a1 1 0 0 1-.035.185l.052.017.283-.624-.052-.023c-.052.098-.115.162-.179.18-.052.017-.133.005-.242-.041l-.422-.168.317-.716.532.208c.092.04.156.075.19.104.041.035.064.075.07.121a.726.726 0 0 1-.023.225l.058.024.155-.41-1.484-.59Zm-16.736.774-.04.018.098 1.761c.012.156.006.266-.017.33-.012.029-.058.07-.127.121l.023.052.595-.283-.029-.046c-.092.034-.156.052-.196.04-.035-.006-.064-.023-.076-.052a.498.498 0 0 1-.034-.173l-.023-.335.733-.341.243.196c.081.064.133.116.15.156.018.03.018.058 0 .093a.344.344 0 0 1-.133.104l.03.052.733-.353-.023-.046a.304.304 0 0 1-.208.023c-.064-.011-.15-.069-.266-.161L11.78 2.039Zm19.09.24a.574.574 0 0 0-.171.02.537.537 0 0 0-.34.243.451.451 0 0 0-.059.225.57.57 0 0 0 .058.243c.035.08.116.202.226.37.11.161.173.265.196.306a.458.458 0 0 1 .046.179c0 .057-.011.11-.035.15a.34.34 0 0 1-.219.15.446.446 0 0 1-.312-.052.61.61 0 0 1-.237-.196.488.488 0 0 1-.092-.249.922.922 0 0 1 .063-.329l-.046-.023-.347.595.052.023c.035-.035.052-.058.076-.058.023-.011.04-.006.063.006a.753.753 0 0 1 .144.121.87.87 0 0 0 .295.225c.168.087.335.11.497.07a.53.53 0 0 0 .358-.26.486.486 0 0 0 .064-.225.605.605 0 0 0-.052-.237 3.255 3.255 0 0 0-.243-.376c-.15-.213-.231-.37-.254-.462a.253.253 0 0 1 .023-.173.297.297 0 0 1 .196-.139.407.407 0 0 1 .283.035.538.538 0 0 1 .209.185.49.49 0 0 1 .092.254.932.932 0 0 1-.07.318l.052.029.341-.601-.052-.023a.163.163 0 0 1-.08.057c-.024.006-.047.006-.07-.011-.023-.006-.052-.035-.087-.081a.922.922 0 0 0-.277-.231.732.732 0 0 0-.29-.077ZM11.9 2.49l.693.567-.647.3-.046-.866Zm-1.444.232-.485.312.3 1.664-1.537-.873-.496.318.034.046c.07-.046.127-.075.168-.075.046-.006.08 0 .11.012.04.023.086.069.138.144l.769 1.063c.063.092.098.15.098.19 0 .064-.035.116-.11.162l-.064.04.035.047.607-.393-.035-.04-.064.04a.255.255 0 0 1-.185.046c-.04-.011-.098-.069-.167-.167l-.786-1.086 1.652.942.04-.024-.323-1.796.786 1.086c.064.092.098.156.098.19 0 .064-.034.116-.11.162l-.063.04.034.047.734-.474-.029-.04-.063.035c-.064.046-.127.063-.185.046-.04-.006-.098-.064-.174-.162l-.768-1.063c-.063-.092-.098-.156-.098-.196 0-.058.04-.116.116-.162l.057-.04-.034-.041ZM32.077 3.83c-.173 0-.306.127-.306.289 0 .156.133.289.306.289h.029l.017-.006h.012l.017-.006h.017l.012-.006.012-.005.017-.006.011-.006.012-.006.017-.011.012-.006.011-.012.012-.005.006-.012.011-.011.012-.006.006-.012.011-.011.006-.012.006-.011.011-.012.006-.017.006-.012v-.011l.005-.018.006-.011v-.018l.006-.011V4.119c0-.162-.139-.289-.306-.289Zm1.681.093-.035.04.058.046c.064.046.093.093.093.145.005.046-.035.121-.116.213l-.514.595c-.162.185-.254.324-.289.41a.576.576 0 0 0-.006.382c.04.127.15.26.33.393.161.127.317.196.462.202a.676.676 0 0 0 .38-.07c.105-.063.22-.167.353-.323l.532-.618a.503.503 0 0 1 .167-.145.22.22 0 0 1 .214.04l.058.047.034-.046-.566-.433-.034.046.057.04c.064.052.093.098.093.156.006.04-.035.11-.116.202l-.537.618c-.139.168-.254.272-.34.312a.524.524 0 0 1-.319.04.732.732 0 0 1-.34-.155.497.497 0 0 1-.174-.197.405.405 0 0 1-.04-.208.568.568 0 0 1 .092-.23c.052-.087.11-.157.156-.214l.578-.67c.075-.081.133-.133.173-.145.064-.017.127 0 .19.046l.064.046.035-.04-.693-.526Zm-25.805.45-.542.462.034.04.058-.051a.245.245 0 0 1 .179-.064c.04.006.104.052.196.145l.567.595c.144.156.236.277.271.364a.45.45 0 0 1-.012.3.69.69 0 0 1-.213.294.577.577 0 0 1-.237.133.569.569 0 0 1-.22.006c-.075-.017-.144-.063-.23-.121-.082-.064-.145-.127-.203-.185l-.606-.636c-.081-.086-.122-.144-.128-.184-.011-.064.018-.122.081-.174l.058-.052-.04-.034-.659.56.035.04.058-.046c.057-.052.115-.075.167-.07.052.007.121.059.208.145l.543.572c.168.18.295.29.387.33a.668.668 0 0 0 .399.069c.138-.023.294-.104.462-.243.156-.133.248-.271.283-.404a.504.504 0 0 0-.012-.358 1.52 1.52 0 0 0-.283-.382l-.566-.595c-.08-.08-.121-.138-.127-.179a.187.187 0 0 1 .07-.184l.063-.052-.04-.04Zm27.903 1.358a.565.565 0 0 0-.399.144.542.542 0 0 0-.127.202.555.555 0 0 0-.017.243c.011.092.046.23.104.416.057.185.092.3.098.346a.507.507 0 0 1-.012.191.284.284 0 0 1-.08.127.318.318 0 0 1-.25.093.443.443 0 0 1-.288-.133.65.65 0 0 1-.167-.254.45.45 0 0 1-.012-.26.995.995 0 0 1 .156-.3l-.04-.041-.503.48.04.04c.04-.03.07-.04.093-.04.023 0 .04.005.058.022.017.018.052.07.104.156.046.093.08.15.098.174.029.04.07.08.11.12a.672.672 0 0 0 .456.203.575.575 0 0 0 .422-.15.465.465 0 0 0 .127-.202.486.486 0 0 0 .023-.243 2.586 2.586 0 0 0-.116-.427c-.075-.243-.115-.416-.104-.509a.25.25 0 0 1 .076-.161.311.311 0 0 1 .23-.076c.099 0 .185.035.26.11a.508.508 0 0 1 .15.497.777.777 0 0 1-.161.289l.04.034.515-.479-.047-.04a.19.19 0 0 1-.092.04.093.093 0 0 1-.064-.029.335.335 0 0 1-.063-.11.87.87 0 0 0-.19-.289.665.665 0 0 0-.428-.184Zm-29.791.277-.59.63.047.034.046-.052a.289.289 0 0 1 .121-.075.172.172 0 0 1 .093-.006.786.786 0 0 1 .167.116l.457.375-.636.682-.456-.37a.737.737 0 0 1-.139-.138.104.104 0 0 1-.011-.093.307.307 0 0 1 .063-.121l.052-.052-.046-.035-.584.63.04.035.053-.052a.333.333 0 0 1 .115-.075.172.172 0 0 1 .093-.006.663.663 0 0 1 .167.115l1.023.844c.098.075.144.133.156.167.011.058-.012.122-.07.185l-.046.052.04.029.59-.63-.046-.034-.047.051a.268.268 0 0 1-.12.076.172.172 0 0 1-.093.005.607.607 0 0 1-.168-.115l-.48-.393.636-.687.48.398c.092.075.144.133.156.168a.217.217 0 0 1-.07.179l-.046.052.04.034.59-.63-.046-.034-.047.052a.33.33 0 0 1-.121.075.171.171 0 0 1-.093.006.786.786 0 0 1-.167-.116l-1.023-.843a.501.501 0 0 1-.138-.133.106.106 0 0 1-.012-.092.208.208 0 0 1 .064-.122l.047-.052-.04-.034h-.001Zm31.76 1.502-1.802.485c-.156.046-.271.064-.346.052a.318.318 0 0 1-.15-.086l-.047.034.416.48.047-.03c-.058-.08-.087-.138-.087-.173 0-.034.011-.063.035-.086a.52.52 0 0 1 .173-.07l.34-.092.52.595-.15.272a.736.736 0 0 1-.127.173.129.129 0 0 1-.092.017c-.04-.006-.087-.04-.145-.098l-.04.035.52.6.046-.034a.262.262 0 0 1-.07-.19c0-.059.035-.151.105-.278l.883-1.572-.029-.035Zm-.415.242-.428.763-.456-.52.884-.243Zm2.166.318Zm0 0v.006l-.006.012-.011.017-.012.023-.017.035-.023.034-.03.047-.028.046-.035.057-.04.058-.046.064-.047.075-.051.07-.058.08-.058.081-.064.087-.069.092-.075.092-.075.093-.081.098-.087.098-.086.104-.093.104-.098.11-.104.104-.104.11-.11.11-.115.11-.116.11-.121.11-.127.103-.133.11c-1.011.826-12.576 7.926-13.142 8.376-.572.445-1.611 1.641-2.46 5.165-.688 2.842-1.133 1.779-3.403 1.692-1.329-.052-5.014-1.022-4.731 1.826 0 0 .456-.636 5.488.04 1.981.272 3.598-.375 4.066-1.866.468-1.513 1.15-4.084 2.172-5.436.474-.624 9.74-6.32 12.294-7.839.93-.548 3.922-2.357 1.837-4.407ZM4.43 9l-.335.514.046.03a.15.15 0 0 1 .093-.053.182.182 0 0 1 .132.03c.128.069.232.236.318.49a6.53 6.53 0 0 1-.757.012c.012-.202.006-.353-.023-.45a.37.37 0 0 0-.185-.232.362.362 0 0 0-.288-.04.395.395 0 0 0-.249.185.531.531 0 0 0-.092.329c.011.15.092.271.242.352a.775.775 0 0 0 .185.081c.064.017.156.035.272.052-.018.26.006.456.07.59a.623.623 0 0 0 .242.294.45.45 0 0 0 .358.04.57.57 0 0 0 .323-.254.783.783 0 0 0 .116-.294 1.054 1.054 0 0 0-.023-.393c.15-.03.265-.07.352-.116a.553.553 0 0 0 .19-.173.425.425 0 0 0 .07-.289.59.59 0 0 0-.179-.306l-.07.029a.26.26 0 0 1 .093.167.281.281 0 0 1-.046.174.418.418 0 0 1-.168.144 1.261 1.261 0 0 1-.323.087 2.588 2.588 0 0 0-.225-.48c-.087-.156-.133-.254-.139-.306a.35.35 0 0 1 .052-.19L4.43 9Zm-.957.435c.05 0 .1.013.143.039a.384.384 0 0 1 .173.208l.006.017.005.018v.017l.006.017.006.023v.018l.006.017v.046l.006.018v.023l-.006.023v.075l-.006.023c-.127-.023-.225-.04-.289-.058a.684.684 0 0 1-.156-.057.333.333 0 0 1-.121-.145.222.222 0 0 1 .029-.214.233.233 0 0 1 .198-.108Zm1.263.865h.023c.018.127.024.22.012.277a.35.35 0 0 1-.064.168.344.344 0 0 1-.254.167.47.47 0 0 1-.306-.052.457.457 0 0 1-.19-.213.984.984 0 0 1-.053-.341c.145.011.26.017.364.017H4.436l.011-.005h.081l.018-.006H4.62l.017-.006h.081l.017-.006Zm36.961.78.008.01.003-.004a.052.052 0 0 0-.011-.007Zm.008.01-.044.088-.052.092-.052.099-.052.104-.057.11-.03.051-.034.058-.035.058-.034.058-.04.058-.041.057-.04.064-.047.058-.052.063-.046.064-.057.057-.058.07-.064.063-.063.064-.07.063-.07.07-.08.063-.08.07-.088.069-.086.07-.098.063-.099.07c-2.068 1.386-10.057 6.342-11.9 7.446-1.04.618-1.872 1.785-2.126 2.31-.283.584-.704 2.034-.895 4.524-.035.479-1.294 1.27-1.138 1.623.15.34 1.11.173 1.074.439-.034.23-.317.583-.317.809 0 .265.566.023.427.312-.237.473.139.577.277.935.145.353-.046.757.081 1.058.231.52 1.052.617 2.363.589 1.317-.023 1.912.883 1.623 1.692-.375 1.069-1.253 1.052-2.617 1.97-1.369.913-1.427 2.074-.63 3.062.607.75 2.89 1.115 4.322-.34.294-.33-.647.115-2.016-.602 0 0-.89-.64-.416-1.502.468-.866 1.23-1.242 2.073-1.733.838-.496 1.942-.768 1.89-1.831-.052-1.057-1.156-1.207-1.6-1.236-.451-.023-1.144.017-1.762-.012-.936-.046-1.22-.49-1.277-2.276-.017-.572-.82-.265-.376-1.022.237-.393-.444-.237-.907-.433-.392-.18.457-1.006 1.046-1.791.185-.249-.104-.566 0-1.739.098-1.023.572-2.357 1.941-3.293.67-.456 3.593-2.276 4.442-2.761 1.19-.688 6.95-4.414 7.938-5.159 1.724-1.302.156-2.789.049-2.912Zm-39.654.417-.335.774.057.024.023-.064a.263.263 0 0 1 .087-.11.13.13 0 0 1 .087-.029c.034 0 .104.018.202.058l.554.214-.364.843-.56-.22a.63.63 0 0 1-.179-.086c-.023-.023-.04-.052-.04-.08a.257.257 0 0 1 .017-.134l.029-.063-.052-.023-.34.774.051.023.029-.064a.333.333 0 0 1 .087-.11.139.139 0 0 1 .086-.034c.035 0 .104.023.203.058l1.253.485c.116.046.185.08.202.115.035.052.035.116 0 .191l-.029.064.058.017.335-.774-.052-.023-.029.07a.298.298 0 0 1-.086.103.139.139 0 0 1-.087.035.783.783 0 0 1-.196-.058l-.595-.225.37-.844.588.226c.116.046.185.086.203.115.034.052.034.115 0 .19l-.03.064.053.023.34-.78-.051-.017-.035.064a.36.36 0 0 1-.08.11.172.172 0 0 1-.087.028.648.648 0 0 1-.203-.057l-1.253-.48a1.317 1.317 0 0 1-.18-.086.104.104 0 0 1-.04-.087.21.21 0 0 1 .018-.133l.029-.064-.058-.023Zm-.93 2.23-.474 1.548.462.15.018-.052a.459.459 0 0 1-.197-.12.254.254 0 0 1-.07-.157c-.005-.04.012-.104.035-.19l.076-.232 1.53.422c.11.03.18.064.208.093.04.046.046.11.023.19l-.023.064.058.017.249-.803-.058-.017-.018.063c-.023.076-.063.128-.115.15-.04.018-.122.007-.243-.022l-1.53-.422.08-.266a.44.44 0 0 1 .098-.179.357.357 0 0 1 .162-.08.74.74 0 0 1 .191.005l.017-.052-.48-.11Zm.993 1.924-.023.04a.99.99 0 0 1 .249.202c.052.064.08.122.086.185.012.07 0 .174-.029.324l-.034.139a.997.997 0 0 1-.058.219.135.135 0 0 1-.058.046.513.513 0 0 1-.179-.011l-1.294-.243a.634.634 0 0 1-.22-.07.173.173 0 0 1-.063-.098.603.603 0 0 1 .012-.219l-.052-.012-.185.873.052.011.017-.075a.225.225 0 0 1 .104-.15c.035-.023.116-.017.243.006l1.328.254c.116.017.19.046.214.07.052.046.063.109.052.19l-.017.07.057.01.318-1.49-.52-.271ZM40.2 16.93l-.006.007-.005.005-.006.006-.012.006-.011.011-.012.012-.017.012-.035.029-.04.04-.052.04-.052.046-.064.053-.063.051-.075.064-.075.064-.081.063-.087.07-.087.075-.092.075-.098.075-.098.08-.104.082-.099.08-.213.162-.22.162-.214.162-.22.15-.103.075-.11.07-.104.069-.098.069c-1.138.71-6.245 3.426-7.377 4.361-1.138.936-1.092 1.733-1.092 1.733l-.185 2.317s-.71.716-.803.982c-.092.266.474.312.896.531.427.226-.081.428.092.63.335.376.595.07.37.71-.035.099.283.4.248.567-.058.265-.202.445.046.681.283.266 1.196.717 3.287.29 2.27-.469 3.761 1.3 4.893 1.6.387.098 1.67.502 3.692-1.07.872-.675-.538-.063-2.56-.912-2.154-.901-2.801-.959-4.251-.688-1.242.232-2.16.434-2.646.29-.416-.128-.07-.746-.381-.85-.624-.208-.197-.508-.566-.71-.376-.208-.156-.29-.168-.705-.005-.289-.323-.208-.78-.462-.352-.202.486-.572.607-.867.139-.364-.035-.872.058-1.617.167-1.312 2.126-2.23 3.165-2.808 1.138-.618 4.385-2.6 5.153-3.113 1.797-1.202.855-2.854.855-2.854Zm-37.97.59a.278.278 0 0 1-.087.18.807.807 0 0 1-.289.126l-1.802.537v.047l1.64.843c.145.075.243.139.284.19.023.03.04.082.046.162l.058.006.063-.618-.058-.006c-.017.093-.04.156-.063.18-.029.028-.058.04-.093.034a.49.49 0 0 1-.173-.064l-.312-.161.075-.763.306-.092a.888.888 0 0 1 .22-.04.112.112 0 0 1 .08.051c.024.03.03.081.03.162l.057.006.076-.774-.058-.006Zm-.832.728-.064.676-.808-.422.872-.254Zm.167 1.473v.063c.128.064.226.122.29.18.051.046.08.098.097.144.018.052.024.133.03.243l.005.329c0 .058-.006.092-.017.11-.012.023-.029.034-.052.046a.768.768 0 0 1-.168.011l-.687.006v-.433a.41.41 0 0 1 .023-.185.168.168 0 0 1 .087-.08.553.553 0 0 1 .19-.047v-.052l-.722.006v.058c.122 0 .202.029.249.075.034.04.052.115.057.225v.433l-.82.012-.006-.538a.493.493 0 0 1 .018-.207.22.22 0 0 1 .092-.11.686.686 0 0 1 .231-.07l-.006-.057-.456.023.017 1.519h.058v-.07c0-.08.017-.138.058-.173.029-.023.11-.04.243-.04l1.363-.017c.098 0 .167.005.196.017.035.011.064.029.081.063.023.04.035.081.035.128v.069h.058l-.018-1.52-.525-.161Zm.543 1.825-.057.006.011.064a.236.236 0 0 1-.023.139.105.105 0 0 1-.058.063.604.604 0 0 1-.202.046l-1.346.145a.834.834 0 0 1-.202.005.112.112 0 0 1-.08-.052.27.27 0 0 1-.053-.127l-.011-.069-.058.006.104.837.063-.011-.011-.064a.28.28 0 0 1 .017-.138c.018-.03.035-.058.058-.07.035-.011.104-.029.208-.04l.595-.064.115.901-.6.07a.842.842 0 0 1-.203.006.197.197 0 0 1-.08-.052.271.271 0 0 1-.052-.127l-.006-.07-.058.006.104.832.058-.006-.012-.07a.236.236 0 0 1 .023-.138.125.125 0 0 1 .058-.063.653.653 0 0 1 .202-.04l1.346-.151c.122-.012.208-.012.237.011.058.03.087.087.098.162l.012.075.058-.011-.104-.832-.058.006.006.069a.288.288 0 0 1-.018.139.156.156 0 0 1-.057.063.745.745 0 0 1-.203.04l-.635.07-.116-.901.636-.07c.121-.017.202-.011.237.006a.226.226 0 0 1 .098.168l.006.069.058-.006-.104-.832ZM1.005 24.94l-.439.133.399 1.415.052-.018-.018-.063a.281.281 0 0 1 0-.139c.012-.034.023-.058.047-.075a.84.84 0 0 1 .196-.064l1.311-.329c.122-.029.197-.034.237-.023.058.023.098.075.121.156l.018.064.057-.012-.23-.815-.053.012.018.07a.282.282 0 0 1 0 .138c-.012.035-.023.058-.046.075a.843.843 0 0 1-.197.064l-.641.161-.098-.346a.27.27 0 0 1-.006-.15c.006-.04.029-.07.058-.099a.382.382 0 0 1 .167-.069l-.017-.052-.682.168.012.057c.115-.017.196-.011.242.012.047.029.081.08.104.162l.099.346-.792.197-.121-.416a.773.773 0 0 1-.03-.231.297.297 0 0 1 .059-.14.639.639 0 0 1 .185-.138l-.012-.052Zm1.48 1.51c-.14 0-.284.026-.434.078-.29.104-.497.277-.618.514l-.012.023-.012.023-.011.023-.012.024-.005.023-.006.023-.012.023-.006.023-.005.023-.006.023-.006.023-.006.023v.024l-.005.023v.063l-.006.023.006.023v.07l.005.023v.023l.006.023.006.023.006.018.005.023.006.023.006.023.012.023.005.023c.099.243.26.416.503.532.277.127.566.138.878.029.306-.104.52-.284.647-.52a.871.871 0 0 0 .035-.74.943.943 0 0 0-.555-.537 1.073 1.073 0 0 0-.409-.083Zm.238.274c.087 0 .165.011.235.035.19.064.317.18.387.352a.476.476 0 0 1-.047.457c-.12.19-.34.34-.658.45-.312.11-.578.133-.786.07l-.017-.006-.017-.006-.012-.005-.017-.006-.012-.006-.017-.012-.012-.005-.017-.006-.012-.012-.011-.006-.012-.005L1.681 28l-.012-.011-.011-.006-.012-.012-.011-.011-.006-.006-.012-.012-.011-.011-.012-.012-.006-.011-.011-.012-.012-.011-.005-.012-.012-.017-.006-.012-.005-.011-.012-.018-.006-.011-.006-.017-.005-.012-.006-.017a.502.502 0 0 1 .035-.48c.11-.185.34-.335.675-.45.195-.07.366-.104.51-.105Zm9.662 1.162c-1.197.013-2.054.548-1.877 1.606l.012-.006.011-.006.012-.011.023-.012.023-.017.035-.018.034-.011.04-.018.047-.023.052-.017.057-.017.058-.012.07-.017.075-.012.075-.011.087-.012.092-.006.098-.006h.098l.11.006.116.006.121.012.064.011.069.012.063.005.07.018.07.011.069.012.075.017.075.023.075.018.08.023.076.023.086.023.081.029.087.029.087.029.087.034.092.03.092.04c1.982.803 7.216 3.165 8.602 4.182.85.624 3.218 1.693 2.553 2.854-.664 1.155-3.876 1.692-3.217 4.182.664 2.496 4.165 1.427 4.638.803.468-.624-1.56.364-2.27-1.42-.566-1.428.422-2.375 1.797-3.3.658-.444 1.554-.802 1.415-1.958-.093-.803-1.508-1.426-2.929-2.224-1.421-.803-6.903-3.385-9.08-4.367-.815-.366-1.657-.545-2.375-.537Zm-8 1.305-.052.03.04.063c.035.063.046.127.029.179-.017.034-.08.08-.196.138l-1.398.723-.145-.243a.414.414 0 0 1-.058-.197.226.226 0 0 1 .052-.161.509.509 0 0 1 .14-.122l-.024-.052-.422.243.815 1.415.444-.202-.028-.052a.447.447 0 0 1-.231.046.27.27 0 0 1-.168-.063.648.648 0 0 1-.115-.162l-.122-.208 1.404-.716a.578.578 0 0 1 .214-.075c.063.005.115.046.162.121l.034.064.052-.03-.427-.739Zm.9 1.439-1.455.941c-.098.064-.162.093-.202.093-.07 0-.121-.035-.173-.104l-.04-.058-.053.029.416.572.046-.035-.04-.052c-.046-.063-.064-.121-.052-.173.012-.04.075-.098.173-.168l.994-.635-.566 1.82.323.439.047-.03a.75.75 0 0 1-.07-.11c-.011-.057-.023-.103-.023-.144 0-.034.012-.098.035-.179l1.201-.78a.547.547 0 0 1 .203-.092c.069 0 .127.035.173.104l.046.058.046-.029-.416-.572-.046.035.04.057c.047.064.064.122.047.174-.006.04-.064.092-.173.162l-1.058.687.607-1.964-.029-.046Zm1.249 1.71-.515.19.04.046a.975.975 0 0 1 .348-.034c.069 0 .127.023.173.046.046.029.11.087.185.173l.23.249c.035.04.059.075.059.098a.068.068 0 0 1-.006.058.624.624 0 0 1-.121.11l-.52.421-.3-.329a.446.446 0 0 1-.105-.156.159.159 0 0 1 .006-.116.597.597 0 0 1 .121-.15l-.04-.04-.549.439.04.04c.093-.063.174-.092.243-.086.052.005.116.057.197.144l.3.33-.63.502-.37-.41a.692.692 0 0 1-.126-.173.23.23 0 0 1-.006-.14.705.705 0 0 1 .127-.19l-.035-.046-.34.3 1.05 1.156.041-.035-.046-.058c-.058-.057-.08-.115-.075-.167.012-.035.063-.098.162-.174l1.034-.837c.08-.058.133-.098.167-.11a.144.144 0 0 1 .098 0 .278.278 0 0 1 .116.081l.052.052.04-.035-1.045-1.15Zm1.126 1.265-.04.034.052.047c.063.052.092.103.086.161 0 .04-.04.104-.127.197l-.93.947a.494.494 0 0 1-.173.133c-.064.012-.133-.012-.197-.07l-.051-.045-.04.04.432.381 1.658-.653-.554 1.606.439.382.034-.04a.454.454 0 0 1-.115-.14c-.012-.04-.018-.075-.006-.104a.484.484 0 0 1 .11-.155l.93-.948c.08-.08.138-.127.179-.133.058-.017.127.006.19.064l.052.046.04-.035-.536-.468-.035.04.052.047c.058.052.087.104.087.162 0 .035-.047.098-.133.19l-.948.965.607-1.727-.035-.035-1.79.705.953-.967c.075-.081.133-.127.173-.133.064-.017.127.006.197.064l.052.046.04-.04-.653-.567v.003Zm2.45 2.016-.035.046.063.04c.064.047.099.093.11.15 0 .041-.034.11-.11.203l-.936 1.219-.242-.162a.44.44 0 0 1-.145-.15.312.312 0 0 1-.023-.168.567.567 0 0 1 .07-.167l-.046-.035-.266.393 1.38.942.306-.364-.046-.03a.465.465 0 0 1-.185.134.323.323 0 0 1-.179.011.838.838 0 0 1-.179-.098l-.202-.145.936-1.213a.533.533 0 0 1 .156-.155c.063-.018.127-.006.202.046l.058.04.034-.046-.722-.491Zm.976.687-.03.046a.54.54 0 0 1 .197.203c.04.069.064.184.081.34l.07.7a.777.777 0 0 0-.44-.024.461.461 0 0 0-.277.208c-.063.099-.086.197-.063.306a.492.492 0 0 0 .138.272c.075.075.208.168.399.272l.652.37.03-.053-.064-.034c-.075-.035-.11-.087-.121-.139-.006-.04.017-.116.086-.22l.688-1.097c.063-.098.11-.15.144-.168a.213.213 0 0 1 .202.018l.07.04.029-.046-.769-.428-.029.047.07.04c.069.035.104.081.115.133.012.04-.023.116-.086.22l-.312.496c-.012-.005-.024-.017-.035-.023a.093.093 0 0 1-.04-.023 2.815 2.815 0 0 1-.104-.058l-.116-1.132-.485-.266Zm1.877 1.04-.023.052c.075.035.127.081.15.139.03.052.04.15.04.295l-.051 1.779.046.017 1.38-1.19a.993.993 0 0 1 .284-.197c.034-.011.092-.005.179.018l.023-.052-.601-.254-.023.046c.092.046.144.087.162.115a.105.105 0 0 1 .005.093.561.561 0 0 1-.12.139l-.26.22-.746-.313.006-.3a.66.66 0 0 1 .029-.208c.017-.029.04-.052.08-.058.035-.012.093 0 .168.029l.023-.046-.75-.324Zm-1.564.386c.104.005.22.042.345.11.012.007.018.012.035.024h.006l.005.006.006.006h.006l.006.005h.005v.006h.006l-.445.7a1.236 1.236 0 0 1-.219-.088.405.405 0 0 1-.214-.248.395.395 0 0 1 .058-.318.42.42 0 0 1 .3-.196.45.45 0 0 1 .1-.007Zm4.14.63-.017.053.075.023c.07.023.122.063.145.115.011.035 0 .11-.04.231l-.203.544a5.243 5.243 0 0 0-.162-.093c-.057-.017-.104-.04-.155-.058-.191-.063-.359-.063-.497-.005a.544.544 0 0 0-.295.323.48.48 0 0 0-.006.324c.04.104.11.19.197.26.086.063.22.127.398.184l.722.237.018-.052-.075-.023c-.075-.023-.122-.063-.145-.115-.017-.035-.006-.116.04-.226l.44-1.213a.517.517 0 0 1 .104-.19c.052-.035.12-.04.202-.018l.075.023.023-.046-.843-.277Zm-2.137.007.659.277-.682.59.023-.867Zm3.293.346-.3.44.069.017c.092-.104.179-.174.254-.22a.409.409 0 0 1 .173-.058c.052 0 .139.012.254.035l.341.081c.058.012.093.023.11.04.017.018.029.035.029.052.006.023-.006.07-.023.162l-.162.624-.45-.098a.442.442 0 0 1-.18-.07.22.22 0 0 1-.069-.098.74.74 0 0 1 .006-.19l-.058-.012-.167.664.052.012a.37.37 0 0 1 .144-.208c.052-.023.133-.018.248.006l.445.104-.19.756-.56-.127a1.475 1.475 0 0 1-.203-.069.241.241 0 0 1-.092-.115.576.576 0 0 1-.018-.226l-.063-.011-.081.427 1.565.352.012-.051-.07-.018c-.08-.017-.138-.052-.161-.092-.017-.035-.017-.116.017-.237l.318-1.248a.649.649 0 0 1 .063-.173c.018-.035.047-.046.081-.052a.248.248 0 0 1 .145-.006l.075.017.011-.052-1.565-.358Zm2.631.518c-.269.009-.487.081-.655.216a.966.966 0 0 0-.353.647.982.982 0 0 0 .075.554c.081.168.197.295.347.382.15.08.381.144.693.185l.843.098.006-.058-.075-.006c-.075-.011-.133-.034-.167-.086-.023-.03-.03-.11-.012-.231l.168-1.266a.51.51 0 0 1 .063-.207c.04-.047.11-.07.197-.058l.075.011.006-.057-.925-.11a1.972 1.972 0 0 0-.286-.014Zm-4.192.048c.037 0 .074.007.11.018.03.011.065.023.1.04l.005.006h.011l.006.006.006.005h.006l.011.006.006.006h.006l.011.006.006.006h.012l.006.005.011.006.006.006h.011l.006.006-.283.78a.951.951 0 0 1-.196-.04.381.381 0 0 1-.197-.122.347.347 0 0 1-.092-.202.503.503 0 0 1 .029-.243.458.458 0 0 1 .213-.248.407.407 0 0 1 .19-.047Zm4.387.068.085.007h.018l.017.006h.017l.023.006h.018l.017.006.017.006h.024l.017.005.023.006.023.006.017.006.024.005.023.006.023.012.023.005-.22 1.664a1.492 1.492 0 0 1-.317.006.805.805 0 0 1-.572-.306c-.139-.173-.185-.393-.15-.664.034-.272.144-.474.317-.613a.796.796 0 0 1 .533-.169ZM56.012 29l-.014-6.09-2.987 5.017h-1.059l-2.972-4.886V29h-2.204V18.85h1.943l3.799 6.307 3.74-6.307h1.93L58.215 29h-2.204Zm11.844-3.872c0 .03-.014.232-.043.61H61.91c.107.483.358.865.754 1.145.397.28.89.42 1.48.42.405 0 .763-.058 1.072-.174.32-.125.614-.319.885-.58l1.203 1.306c-.734.84-1.807 1.261-3.219 1.261-.88 0-1.657-.17-2.334-.508-.677-.348-1.199-.826-1.566-1.435-.367-.609-.551-1.3-.551-2.073 0-.764.179-1.45.536-2.06a3.806 3.806 0 0 1 1.494-1.435 4.378 4.378 0 0 1 2.131-.522c.764 0 1.455.164 2.074.493a3.539 3.539 0 0 1 1.45 1.421c.358.609.536 1.32.536 2.131Zm-4.045-2.334c-.512 0-.943.145-1.29.435-.349.29-.561.686-.639 1.189h3.843c-.077-.493-.29-.884-.638-1.174-.348-.3-.773-.45-1.276-.45Zm13.247-4.553V29h-2.16v-.899c-.56.677-1.373 1.015-2.436 1.015a4.091 4.091 0 0 1-2.001-.493 3.543 3.543 0 0 1-1.392-1.407c-.338-.608-.508-1.314-.508-2.117 0-.802.17-1.508.508-2.116a3.543 3.543 0 0 1 1.392-1.407 4.091 4.091 0 0 1 2-.493c.996 0 1.775.314 2.335.943V18.24h2.262Zm-4.205 9.019c.57 0 1.044-.193 1.421-.58.377-.396.566-.923.566-1.58 0-.658-.189-1.18-.566-1.567-.377-.396-.85-.594-1.42-.594-.58 0-1.06.198-1.436.595-.377.386-.566.908-.566 1.566 0 .657.189 1.184.566 1.58.377.387.855.58 1.435.58Zm6.049-6.061h2.262V29h-2.262v-7.801Zm1.13-1.088c-.415 0-.753-.12-1.014-.362a1.176 1.176 0 0 1-.392-.899c0-.358.13-.657.392-.899.26-.242.6-.363 1.015-.363.416 0 .754.116 1.015.348.26.233.391.523.391.87 0 .377-.13.692-.391.943-.261.242-.6.363-1.015.363Zm6.751 9.005c-.831 0-1.58-.17-2.247-.508a3.97 3.97 0 0 1-1.552-1.435c-.367-.609-.55-1.3-.55-2.073 0-.774.183-1.465.55-2.074a3.866 3.866 0 0 1 1.552-1.421c.667-.348 1.416-.522 2.247-.522.822 0 1.537.174 2.146.522a3.008 3.008 0 0 1 1.349 1.465l-1.755.942c-.406-.715-.99-1.073-1.754-1.073-.59 0-1.078.193-1.465.58-.386.387-.58.914-.58 1.58 0 .668.194 1.194.58 1.581.387.387.875.58 1.465.58.773 0 1.358-.358 1.754-1.073l1.755.957a3.105 3.105 0 0 1-1.349 1.45c-.609.348-1.324.522-2.146.522Zm7.694-8.033c1.208 0 2.136.29 2.784.87.647.57.971 1.436.971 2.596V29h-2.117v-.971c-.425.724-1.218 1.087-2.378 1.087-.6 0-1.121-.101-1.566-.305-.435-.203-.768-.483-1-.84a2.189 2.189 0 0 1-.348-1.218c0-.726.27-1.296.812-1.712.55-.415 1.396-.623 2.537-.623h1.798c0-.493-.15-.87-.45-1.131-.299-.27-.748-.406-1.348-.406-.415 0-.826.068-1.232.203-.397.126-.735.3-1.015.522l-.812-1.58c.425-.3.933-.532 1.522-.697a6.934 6.934 0 0 1 1.842-.246Zm-.174 6.51c.386 0 .73-.087 1.03-.26.299-.184.511-.45.637-.798v-.797H94.42c-.928 0-1.392.304-1.392.913 0 .29.11.522.333.696.232.164.546.246.943.246Zm7.887-5.364a2.524 2.524 0 0 1 1.087-.856c.464-.193.996-.29 1.595-.29v2.088a8.168 8.168 0 0 0-.507-.029c-.648 0-1.155.184-1.523.551-.367.358-.551.899-.551 1.624V29h-2.262v-7.801h2.161v1.03Zm11.348 2.9c0 .028-.014.231-.043.608h-5.902c.106.484.358.866.754 1.146.396.28.889.42 1.479.42.406 0 .764-.058 1.073-.174a2.7 2.7 0 0 0 .885-.58l1.203 1.306c-.735.84-1.808 1.261-3.219 1.261-.88 0-1.658-.17-2.334-.508-.677-.348-1.199-.826-1.566-1.435-.368-.609-.551-1.3-.551-2.073 0-.764.178-1.45.536-2.06a3.801 3.801 0 0 1 1.494-1.435 4.376 4.376 0 0 1 2.131-.522c.764 0 1.455.164 2.074.493a3.543 3.543 0 0 1 1.45 1.421c.357.609.536 1.32.536 2.131Zm-4.045-2.335c-.513 0-.943.145-1.291.435-.348.29-.561.686-.638 1.189h3.843c-.078-.493-.29-.884-.638-1.174-.348-.3-.774-.45-1.276-.45Z"/></svg>