<svg xmlns="http://www.w3.org/2000/svg" width="128" height="40" fill="none"><g fill="#002677"><path d="M6.33 37.697c1.284.437 2.632.66 3.989.66 5.996 0 10.179-4.35 10.179-12.624V1.08l2.278-1.088v26.169c0 8.44-4.351 13.358-10.514 13.358a10.87 10.87 0 0 1-5.931-1.822Zm-2.602-2.51c1.385.456 2.77.753 3.988.753 5.048 0 8.404-3.16 8.404-10.318V2.958l2.24-1.06v23.928c0 7.483-3.793 11.304-9.064 11.304-1.943 0-3.923-.725-5.568-1.952v.01Zm-1.58-2.24c1.078.353 2.193.548 3.328.595 3.922 0 6.33-2.138 6.33-7.781V4.863l2.203-1.06v21.623c0 6.331-2.9 9.194-7.055 9.194a7.818 7.818 0 0 1-4.816-1.682l.01.009Zm7.585-6.591V5.728L.01 10.106v16.752c0 3.198 2.008 5.336 4.974 5.336 2.965 0 4.75-2.185 4.75-5.838ZM35.288 5.69v7.689c0 2.844 1.683 5.057 4.89 5.057 2.752 0 4.834-2.027 4.834-5.122V5.895a1.485 1.485 0 0 1 1.431-1.534h.019l.288-.018v-.725h-4.834v.725l.316.018a1.484 1.484 0 0 1 1.45 1.516V13.09c0 2.342-1.227 3.774-3.132 3.774-1.906 0-3.068-1.516-3.068-3.793V5.69c0-.809.437-1.274 1.348-1.33l.288-.018v-.725h-5.494v.725l.316.018c.893.066 1.348.502 1.348 1.33ZM41.814 22.098l.307.019c.771.037 1.348.353 1.348 1.227v4.518h-5.43v-4.518c0-.874.577-1.162 1.349-1.227l.288-.019v-.725h-5.494v.725l.316.019c.772.037 1.348.353 1.348 1.227v10.57c0 .873-.576 1.18-1.348 1.227l-.316.018v.726h5.494v-.726l-.288-.018c-.772-.065-1.348-.353-1.348-1.227v-4.927h5.42v4.927c0 .873-.577 1.18-1.349 1.227l-.306.018v.726h5.494v-.726l-.288-.018c-.763-.065-1.349-.353-1.349-1.227v-10.57c0-.874.577-1.162 1.349-1.227l.288-.019v-.725h-5.485v.725ZM46.732 7.875v.688l.409.019c.632.046 1.04.353 1.04 1.227v6.386c0 .874-.436 1.18-1.143 1.218l-.306.019v.706h4.908v-.706l-.288-.019c-.707-.037-1.134-.353-1.134-1.218v-3.393c.037-2.491 1.115-3.978 2.38-3.978.976 0 1.617.66 1.617 1.952v5.429c0 .873-.437 1.18-1.144 1.217l-.316.019v.707h4.918v-.707l-.288-.019c-.707-.037-1.143-.353-1.143-1.217v-5.662c0-1.617-.995-2.965-2.966-2.965-1.385 0-2.594.827-3.068 2.305V7.624l-3.476.27v-.019ZM75.094 18.343c2.092 0 3.282-1.432 3.756-3.05l-.893-.241c-.427 1.116-1.143 1.99-2.593 1.99-1.683 0-2.817-1.6-2.817-4.128h6.451v-.604c0-2.678-1.57-4.834-4.109-4.834-2.714 0-4.517 2.593-4.517 5.429 0 2.835 1.738 5.438 4.722 5.438Zm-.223-9.687c1.143 0 1.868 1.06 1.952 3.235h-4.23c.205-2.008 1.041-3.235 2.278-3.235ZM64.896 15.814c0 1.618.976 2.529 2.529 2.529 1.45 0 2.407-1.06 2.844-2.575l-.743-.214c-.289.874-.772 1.413-1.432 1.413-.874 0-1.162-.632-1.162-1.385V8.87h2.845V7.792h-2.845V4.603H65.9c-.39 2.408-1.617 3.272-2.9 3.542v.725h1.906v6.944h-.01ZM60.546 5.932a1.364 1.364 0 0 0 1.31-1.422 1.366 1.366 0 0 0-1.31-1.31c-.735.009-1.33.613-1.33 1.347a1.35 1.35 0 0 0 1.311 1.385h.019ZM59.588 9.8v6.386c0 .874-.437 1.18-1.143 1.218l-.316.018v.707h4.917v-.707l-.288-.018c-.707-.037-1.143-.353-1.143-1.218v-8.58l-3.589.27v.687l.52.019c.642.018 1.042.353 1.042 1.227v-.01ZM84.278 18.343c1.367 0 2.427-.707 2.882-1.906v1.692h3.458v-.697l-.288-.019c-.706-.037-1.143-.353-1.143-1.218V3.357l-3.523.317v.687l.455.019c.632.019 1.041.353 1.041 1.227v3.737c-.455-1.162-1.515-1.85-2.882-1.85-2.714 0-4.248 2.594-4.248 5.43 0 2.834 1.534 5.437 4.248 5.437v-.018Zm.354-9.687c1.534 0 2.528 1.655 2.528 4.24 0 2.583-.994 4.238-2.528 4.238-1.45 0-2.408-1.636-2.408-4.239 0-2.603.958-4.239 2.408-4.239ZM115.142 25.278c-1.2 0-2.241.79-2.696 2.194v-2.12l-3.477.279v.678l.409.02c.632.046 1.041.352 1.041 1.226v6.387c0 .873-.427 1.18-1.143 1.227l-.307.028v.706h4.908v-.706l-.288-.019c-.706-.046-1.134-.353-1.134-1.227v-3.486c.037-2.594 1.162-4.211 2.529-4.211a.805.805 0 0 1 .678.27 1.068 1.068 0 0 0-.576.975c0 .605.492 1.097 1.097 1.097.604 0 1.097-.502 1.097-1.199-.01-1.301-.976-2.12-2.138-2.12ZM121.816 25.222c-2.714 0-4.518 2.593-4.518 5.429 0 2.844 1.739 5.429 4.732 5.429 2.092 0 3.272-1.432 3.756-3.05l-.893-.25c-.427 1.115-1.143 1.989-2.593 1.989-1.683 0-2.817-1.599-2.817-4.127h6.451v-.605c0-2.668-1.58-4.834-4.109-4.834l-.009.019Zm-2.305 4.415c.213-2.008 1.041-3.235 2.277-3.235 1.144 0 1.869 1.06 1.952 3.235h-4.229ZM107.203 34.165v-5.41c0-2.222-1.385-3.524-3.728-3.524-2.008 0-3.793 1.33-3.793 2.845a1.099 1.099 0 0 0 1.078 1.115 1.099 1.099 0 0 0 1.116-1.078c0-.4-.214-.772-.558-.976.372-.52 1.041-.828 1.841-.828 1.273 0 2.036.958 2.036 2.548v.474l-3.068 1.273c-2.054.846-2.752 1.6-2.752 2.947 0 1.553 1.116 2.547 2.882 2.547a3.116 3.116 0 0 0 2.919-2.026v.316c0 1.06.744 1.692 1.989 1.692.447.009.884-.056 1.302-.186v-.688c-.874.102-1.264-.233-1.264-1.023v-.018Zm-2.027-2.343c-.102 1.822-1.013 3.05-2.277 3.05-.911 0-1.488-.624-1.488-1.572 0-.846.456-1.515 1.33-1.887l2.463-1.097-.019 1.515-.009-.009ZM78.097 33.319c-.289.874-.763 1.413-1.432 1.413-.874 0-1.162-.632-1.162-1.385v-6.721h2.845v-1.079h-2.845V22.36h-1.041c-.39 2.407-1.618 3.281-2.9 3.55v.726h1.905v6.944c0 1.618.976 2.529 2.529 2.529 1.45 0 2.407-1.06 2.835-2.575l-.744-.205.01-.01ZM64.952 34.165v-5.41c0-2.222-1.385-3.524-3.728-3.524-2.008 0-3.793 1.33-3.793 2.845a1.1 1.1 0 0 0 1.079 1.115 1.1 1.1 0 0 0 1.115-1.078c0-.4-.214-.772-.557-.976.371-.52 1.04-.828 1.84-.828 1.274 0 2.036.958 2.036 2.548v.474l-3.068 1.273c-2.054.846-2.751 1.6-2.751 2.947 0 1.553 1.115 2.547 2.881 2.547a3.138 3.138 0 0 0 2.929-2.026v.316c0 1.06.743 1.692 1.99 1.692.445.009.882-.056 1.3-.186v-.688c-.873.102-1.264-.233-1.264-1.023l-.01-.018Zm-2.027-2.343c-.102 1.822-1.013 3.05-2.277 3.05-.911 0-1.488-.624-1.488-1.572 0-.846.456-1.515 1.33-1.887l2.463-1.097-.018 1.515-.01-.009ZM95.239 34.788c-1.683 0-2.817-1.6-2.817-4.128 0-2.575 1.115-4.211 2.798-4.211.744 0 1.33.25 1.683.706a1.162 1.162 0 0 0-.521.958c0 .604.493 1.097 1.097 1.097.623 0 1.097-.493 1.097-1.2 0-1.245-1.246-2.779-3.458-2.779-3.087 0-4.88 2.594-4.88 5.43 0 2.844 1.738 5.428 4.731 5.428 2.055 0 3.217-1.367 3.672-2.928l-.892-.27c-.39 1.06-1.097 1.887-2.501 1.887l-.01.01ZM70.195 33.942V21.113l-3.523.297v.688l.455.019c.632.019 1.041.353 1.041 1.227v10.598c0 .873-.437 1.18-1.143 1.227l-.307.018v.707h4.908v-.697l-.288-.019c-.706-.046-1.134-.353-1.134-1.227l-.01-.01ZM88.36 33.942V28.28c0-1.617-.995-2.965-2.966-2.965-1.394 0-2.594.827-3.068 2.296v-6.507l-3.523.297v.688l.456.019c.632.018 1.04.353 1.04 1.227v10.597c0 .874-.436 1.18-1.143 1.227l-.316.019v.707h4.918v-.698l-.288-.018c-.707-.047-1.144-.354-1.144-1.227v-3.393c.047-2.492 1.116-3.98 2.39-3.98.976 0 1.617.66 1.617 1.953v5.429c0 .874-.437 1.18-1.144 1.227l-.316.019v.706h4.918v-.716l-.288-.018c-.707-.047-1.144-.354-1.144-1.227ZM52.216 25.222c-2.714 0-4.518 2.603-4.518 5.438 0 2.845 1.739 5.429 4.732 5.429 2.092 0 3.272-1.432 3.756-3.05l-.893-.25c-.409 1.115-1.143 1.99-2.593 1.99-1.683 0-2.817-1.6-2.817-4.128h6.451v-.604c0-2.678-1.58-4.834-4.108-4.834l-.01.009Zm-2.296 4.415c.214-2.007 1.032-3.235 2.278-3.235 1.143 0 1.868 1.06 1.952 3.235h-4.23Z"/></g></svg>